<?xml version="1.0" encoding="UTF-8"?>
<svg width="385px" height="81px" viewBox="0 0 385 81" version="1.1" xmlns="http://www.w3.org/2000/svg" xmlns:xlink="http://www.w3.org/1999/xlink">
    <!-- Generator: Sketch 48.2 (47327) - http://www.bohemiancoding.com/sketch -->
    <title>logo</title>
    <desc>Created with Sketch.</desc>
    <defs></defs>
    <g id="Page-1" stroke="none" stroke-width="1" fill="none" fill-rule="evenodd">
        <g id="Group-4" transform="translate(1.000000, 1.000000)">
            <text id="Almanac" font-family="LibreBaskerville-Regular, Libre Baskerville" font-size="70" font-weight="normal" letter-spacing="1" fill="#000000">
                <tspan x="85" y="68">A</tspan>
                <tspan x="140.04" y="68" letter-spacing="-3">lm</tspan>
                <tspan x="231.9" y="68" letter-spacing="-1.2">a</tspan>
                <tspan x="269.48" y="68" letter-spacing="-3.2">n</tspan>
                <tspan x="314.51" y="68" letter-spacing="-5.2">a</tspan>
                <tspan x="348.09" y="68" letter-spacing="-2.2">c</tspan>
            </text>
            <g id="Group-3">
                <g id="Group-2" transform="translate(11.000000, 23.000000)" fill="#000000" fill-rule="nonzero">
                    <path d="M25.228,22.5438596 C25.11405,22.5438596 24.9992167,22.5008772 24.91265,22.4140351 C20.3034167,17.8394737 17.7647167,13.1245614 17.7647167,9.1377193 C17.7647167,5.05087719 21.11255,1.72631579 25.228,1.72631579 C29.34345,1.72631579 32.6921667,5.05087719 32.6921667,9.1377193 C32.6921667,13.1236842 30.1534667,17.8385965 25.5442333,22.4140351 C25.4559,22.5008772 25.34195,22.5438596 25.228,22.5438596 Z M25.228,2.61315789 C21.60545,2.61315789 18.6577667,5.54035088 18.6577667,9.1377193 C18.6577667,12.7973684 20.988,17.1640351 25.228,21.4692982 C29.4688833,17.1640351 31.7991167,12.7973684 31.7991167,9.1377193 C31.7982333,5.54035088 28.85055,2.61315789 25.228,2.61315789 Z M25.228,11.3692982 C23.5364167,11.3692982 22.1593,10.0035088 22.1593,8.3245614 C22.1593,6.64561404 23.5355333,5.27982456 25.228,5.27982456 C26.9187,5.27982456 28.2949333,6.64561404 28.2949333,8.3245614 C28.2949333,10.0035088 26.9187,11.3692982 25.228,11.3692982 Z M25.228,6.16754386 C24.0284333,6.16754386 23.0532333,7.13508772 23.0532333,8.3254386 C23.0532333,9.51578947 24.0293167,10.4833333 25.228,10.4833333 C26.4266833,10.4833333 27.401,9.51578947 27.401,8.3254386 C27.401,7.13508772 26.4266833,6.16754386 25.228,6.16754386 Z" id="Shape"></path>
                    <g id="Group" transform="translate(3.533333, 3.508772)">
                        <path d="M0.8586,32.4491228 C0.839166667,32.4491228 0.81885,32.4482456 0.799416667,32.4447368 C0.554733333,32.4122807 0.383366667,32.1912281 0.415166667,31.9491228 C0.4187,31.9219298 0.507033333,31.2763158 0.931033333,30.3508772 C1.0335,30.1280702 1.29761667,30.0289474 1.52286667,30.1307018 C1.74723333,30.2324561 1.84616667,30.4947368 1.74458333,30.7175439 C1.38065,31.5122807 1.30203333,32.0596491 1.30115,32.0649123 C1.27111667,32.2868421 1.07855,32.4491228 0.8586,32.4491228 Z" id="Shape"></path>
                        <path d="M3.06516667,28.4807018 C2.95386667,28.4807018 2.84256667,28.4394737 2.756,28.3578947 C2.57756667,28.1885965 2.57138333,27.9078947 2.74275,27.7307018 C3.44676667,27 4.28505,26.3429825 5.23375,25.777193 C5.44575,25.6508772 5.71958333,25.7184211 5.84678333,25.9289474 C5.97398333,26.1385965 5.90508333,26.4114035 5.69396667,26.5377193 C4.81328333,27.0631579 4.03771667,27.6719298 3.3867,28.345614 C3.30013333,28.4350877 3.18265,28.4807018 3.06516667,28.4807018 Z M8.23796667,25.3166667 C8.05423333,25.3166667 7.88198333,25.2035088 7.8175,25.0210526 C7.73535,24.7903509 7.85636667,24.5368421 8.08868333,24.454386 C9.0206,24.1263158 10.0373167,23.8535088 11.1088,23.6438596 C11.34995,23.5964912 11.5858,23.7535088 11.6335,23.9938596 C11.6812,24.2342105 11.5230833,24.4675439 11.28105,24.5149123 C10.2519667,24.7157895 9.27853333,24.9763158 8.38813333,25.2903509 C8.33778333,25.3078947 8.28743333,25.3166667 8.23796667,25.3166667 Z M14.2296167,24.1105263 C13.99995,24.1105263 13.8047333,23.9359649 13.7853,23.704386 C13.7641,23.4605263 13.94695,23.245614 14.1925167,23.2254386 C15.1721333,23.1438596 16.2091667,23.1026316 17.2744667,23.1026316 C17.5200333,23.1122807 17.7338,23.2982456 17.7338,23.5464912 C17.7338,23.7938596 17.5147333,23.995614 17.2841833,23.9903509 C16.2339,23.9903509 15.2216,24.0307018 14.2676,24.1105263 C14.2552333,24.1096491 14.2428667,24.1105263 14.2296167,24.1105263 Z M20.7830667,24.0578947 L20.35465,24.0561404 C20.1082,24.054386 19.90945,23.8535088 19.9121,23.6087719 C19.9138667,23.3657895 20.1143833,23.1692982 20.3590667,23.1692982 C20.35995,23.1692982 20.3617167,23.1692982 20.3626,23.1692982 L20.7830667,23.1710526 C21.6664,23.1710526 22.5444333,23.1429825 23.3933167,23.0885965 C23.6397667,23.0745614 23.8517667,23.2587719 23.8676667,23.5026316 C23.8835667,23.7464912 23.6971833,23.9578947 23.4507333,23.9736842 C22.5833,24.0298246 21.6858333,24.0578947 20.7830667,24.0578947 Z M26.4690833,23.6526316 C26.2517833,23.6526316 26.0609833,23.4947368 26.0274167,23.2754386 C25.9912,23.0333333 26.1590333,22.8070175 26.4028333,22.7710526 C27.41955,22.6192982 28.41595,22.4219298 29.3655333,22.1842105 C29.6049167,22.1245614 29.8478333,22.2684211 29.9079,22.5061404 C29.9679667,22.7438596 29.8231,22.9850877 29.5837167,23.0447368 C28.60675,23.2894737 27.5820833,23.4929825 26.5362167,23.6491228 C26.5141333,23.6517544 26.4911667,23.6526316 26.4690833,23.6526316 Z M32.3997833,22.1526316 C32.2195833,22.1526316 32.0491,22.0429825 31.9819667,21.8649123 C31.8945167,21.6359649 32.012,21.3798246 32.24255,21.2938596 C33.2000833,20.9359649 34.1214,20.5236842 34.9817667,20.0684211 C35.2008333,19.9526316 35.47025,20.0350877 35.5859667,20.2508772 C35.7016833,20.4666667 35.6195333,20.7359649 35.4022333,20.8508772 C34.5074167,21.3245614 33.5498833,21.7526316 32.5561333,22.1236842 C32.5057833,22.1429825 32.4519,22.1526316 32.3997833,22.1526316 Z M37.7828167,19.2807018 C37.6459,19.2807018 37.5116333,19.2184211 37.4241833,19.1017544 C37.27755,18.9052632 37.3181833,18.627193 37.51605,18.4815789 C38.3260667,17.8842105 39.0813167,17.2254386 39.7597167,16.5245614 C39.9310833,16.3473684 40.2128667,16.3421053 40.3913,16.5122807 C40.56885,16.6815789 40.57415,16.9622807 40.4036667,17.1394737 C39.6908167,17.8754386 38.89935,18.5666667 38.0487,19.1938596 C37.9683167,19.2526316 37.8746833,19.2807018 37.7828167,19.2807018 Z M41.99985,14.9078947 C41.91505,14.9078947 41.8284833,14.8842105 41.7525167,14.8333333 C41.5467,14.6973684 41.4919333,14.4219298 41.62885,14.2184211 C42.1774,13.4017544 42.6561667,12.527193 43.0536667,11.6192982 C43.1517167,11.3947368 43.41495,11.2912281 43.6410833,11.3885965 C43.8672167,11.4859649 43.97145,11.7473684 43.8734,11.9719298 C43.4555833,12.9289474 42.9512,13.85 42.3726167,14.7105263 C42.2851667,14.8385965 42.1438333,14.9078947 41.99985,14.9078947 Z M44.4343167,9.35789474 C44.3989833,9.35789474 44.36365,9.35350877 44.3283167,9.34561404 C44.0889333,9.2877193 43.9423,9.04736842 44.0006,8.80964912 C44.2320333,7.86842105 44.3936833,6.88157895 44.4811333,5.87631579 C44.5023333,5.63245614 44.7152167,5.44824561 44.9643167,5.47280702 C45.2098833,5.49385965 45.39185,5.70877193 45.37065,5.95263158 C45.2796667,7.00263158 45.11095,8.03421053 44.8689167,9.02017544 C44.8176833,9.22192982 44.6348333,9.35789474 44.4343167,9.35789474 Z" id="Shape"></path>
                        <path d="M44.9758,3.2754386 C44.7390667,3.2754386 44.5420833,3.09035088 44.5297167,2.85350877 C44.5058667,2.36052632 44.46435,1.84912281 44.4069333,1.33157895 C44.37955,1.08859649 44.5571,0.869298246 44.8017833,0.842105263 C45.0482333,0.815789474 45.2673,0.99122807 45.2946833,1.23421053 C45.3538667,1.76929825 45.39715,2.29912281 45.4218833,2.80964912 C45.4333667,3.05438596 45.24345,3.2622807 44.9978833,3.2745614 C44.9908167,3.2754386 44.9828667,3.2754386 44.9758,3.2754386 Z" id="Shape"></path>
                    </g>
                    <path d="M46.87055,3.86842105 C46.7566,3.86842105 46.6417667,3.8254386 46.5552,3.73859649 C46.3803,3.56578947 46.3803,3.28508772 46.5552,3.11140351 L49.0815333,0.602631579 C49.2564333,0.429824561 49.5382167,0.429824561 49.7131167,0.602631579 C49.8880167,0.775438596 49.8880167,1.05614035 49.7131167,1.22982456 L47.1867833,3.73859649 C47.0993333,3.8245614 46.9845,3.86842105 46.87055,3.86842105 Z" id="Shape"></path>
                    <path d="M49.3968833,3.86842105 C49.2829333,3.86842105 49.1681,3.8254386 49.0815333,3.73859649 L46.5552,1.22982456 C46.3803,1.05701754 46.3803,0.775438596 46.5552,0.602631579 C46.7301,0.429824561 47.0118833,0.429824561 47.1867833,0.602631579 L49.7131167,3.11140351 C49.8880167,3.28421053 49.8880167,3.56578947 49.7131167,3.73859649 C49.6256667,3.8245614 49.5108333,3.86842105 49.3968833,3.86842105 Z" id="Shape"></path>
                    <path d="M3.64551667,43.745614 C1.96276667,43.745614 0.5936,42.3859649 0.5936,40.7149123 C0.5936,39.0438596 1.96276667,37.6842105 3.64551667,37.6842105 C5.32826667,37.6842105 6.69743333,39.0438596 6.69743333,40.7149123 C6.69655,42.3859649 5.32826667,43.745614 3.64551667,43.745614 Z M3.64551667,38.5719298 C2.45566667,38.5719298 1.48665,39.5333333 1.48665,40.7149123 C1.48665,41.8964912 2.45478333,42.8587719 3.64551667,42.8587719 C4.83536667,42.8587719 5.80438333,41.8973684 5.80438333,40.7149123 C5.80438333,39.5324561 4.83536667,38.5719298 3.64551667,38.5719298 Z" id="Shape"></path>
                    <path d="M30.1817333,49.8947368 C28.40535,49.8947368 27.0556167,49.2745614 26.55565,48.1868421 C25.2765833,45.4008772 25.17235,45.1736842 22.1151333,46.4894737 C19.8767667,47.4535088 18.9572167,46.8833333 18.6091833,46.4570175 C17.9528667,45.6552632 18.24525,44.2535088 19.4130167,42.6114035 C19.981,41.8131579 20.2354,40.8350877 20.5039333,39.8 C21.3766667,36.4447368 22.366,32.6421053 33.9933167,32.5552632 C42.2825167,32.4938596 45.6259333,29.9815789 47.6240333,28.4807018 C49.1716333,27.3175439 50.1927667,26.5517544 51.8817,28.7377193 C54.0847333,31.5903509 52.1732,33.4438596 50.7775333,34.7973684 C49.8191167,35.727193 49.2546667,36.3350877 49.4878667,36.9438596 C49.6044667,37.2473684 49.5929833,37.5561404 49.4551833,37.8359649 C49.0356,38.6850877 47.5445333,39.1368421 45.4810667,39.7605263 C42.4839167,40.6675439 38.7544833,41.795614 38.2306667,44.395614 C37.5752333,47.6508772 34.0966667,49.4991228 31.1410333,49.8377193 C30.8106667,49.8763158 30.4891333,49.8947368 30.1817333,49.8947368 Z M24.6096667,44.8412281 C25.8489833,44.8412281 26.4293333,45.7745614 27.3692,47.8192982 C27.7817167,48.7184211 29.2180167,49.1649123 31.03945,48.9570175 C33.7671833,48.6438596 36.8129167,46.9166667 37.3552833,44.2210526 C37.9833333,41.1017544 41.9963167,39.8868421 45.2213667,38.9114035 C46.7866333,38.4377193 48.4049,37.9482456 48.6531167,37.4447368 C48.67785,37.395614 48.6866833,37.345614 48.6531167,37.2587719 C48.1946667,36.0622807 49.1901833,35.0964912 50.1539,34.1622807 C51.5628167,32.795614 52.8931167,31.5052632 51.1723833,29.277193 C50.02405,27.7903509 49.7034,28.0298246 48.1628667,29.1877193 C46.0764333,30.7552632 42.5855,33.3789474 34.0003833,33.4421053 C23.0585333,33.522807 22.1999333,36.8263158 21.3687167,40.0210526 C21.09135,41.0877193 20.8042667,42.1903509 20.14265,43.1219298 C19.1436,44.527193 19.0005,45.5280702 19.3026,45.8964912 C19.5472833,46.1947368 20.3202,46.2938596 21.7600333,45.6745614 C23.0293833,45.1298246 23.9206667,44.8412281 24.6096667,44.8412281 Z" id="Shape"></path>
                    <path d="M24.0991,40.6131579 C24.0779,40.6131579 24.0575833,40.6122807 24.0355,40.6087719 C23.7925833,40.5745614 23.6238667,40.354386 23.6556667,40.1131579 C23.7484167,39.422807 24.4506667,38.1289474 26.3666167,38.1798246 C26.6130667,38.1859649 26.8082833,38.3894737 26.8021,38.6342105 C26.7959167,38.8789474 26.5830333,39.0789474 26.3445333,39.0657895 C26.3153833,39.0649123 26.288,39.0649123 26.2606167,39.0649123 C24.7660167,39.0649123 24.5602,40.1131579 24.54165,40.2342105 C24.5072,40.4535088 24.3172833,40.6131579 24.0991,40.6131579 Z" id="Shape"></path>
                    <path d="M36.00025,37.3298246 C35.97905,37.3298246 35.9587333,37.3289474 35.93665,37.3254386 C35.6937333,37.2912281 35.5250167,37.0710526 35.5568167,36.8298246 C35.6478,36.1526316 36.3103,34.8947368 38.1608833,34.8947368 C38.1962167,34.8947368 38.23155,34.8947368 38.2677667,34.8964912 C38.5142167,34.9026316 38.7094333,35.1061404 38.70325,35.3508772 C38.6970667,35.5921053 38.4983167,35.7833333 38.2562833,35.7833333 C38.25275,35.7833333 38.2492167,35.7833333 38.2448,35.7833333 C38.21565,35.7824561 38.1882667,35.7824561 38.1608833,35.7824561 C36.6662833,35.7824561 36.4604667,36.8307018 36.4419167,36.9517544 C36.40835,37.1710526 36.21755,37.3298246 36.00025,37.3298246 Z" id="Shape"></path>
                    <path d="M45.15335,36.5552632 C45.13215,36.5552632 45.1118333,36.554386 45.08975,36.5508772 C44.8468333,36.5166667 44.6781167,36.2964912 44.7099167,36.0552632 C44.8026667,35.3649123 45.50315,34.0701754 47.4208667,34.1219298 C47.6673167,34.1280702 47.8625333,34.3315789 47.85635,34.5763158 C47.8501667,34.8210526 47.6364,35.022807 47.3987833,35.0078947 C45.8096667,34.9640351 45.61445,36.0526316 45.5950167,36.1763158 C45.5623333,36.3964912 45.3715333,36.5552632 45.15335,36.5552632 Z" id="Shape"></path>
                    <path d="M31.29915,46.0780702 C31.27795,46.0780702 31.2576333,46.077193 31.23555,46.0736842 C30.9926333,46.0394737 30.8239167,45.8192982 30.8557167,45.5780702 C30.9467,44.9008772 31.6092,43.6429825 33.4597833,43.6429825 C33.4951167,43.6429825 33.53045,43.6429825 33.5666667,43.6447368 C33.8131167,43.6508772 34.0083333,43.854386 34.00215,44.0991228 C33.9959667,44.3438596 33.7733667,44.5421053 33.5445833,44.5307018 C33.5154333,44.5298246 33.48805,44.5298246 33.4606667,44.5298246 C31.9660667,44.5298246 31.76025,45.5780702 31.7417,45.6991228 C31.7081333,45.9184211 31.5173333,46.0780702 31.29915,46.0780702 Z" id="Shape"></path>
                </g>
                <path d="M7.09599221,19 L7.09599221,30.6568234 L9.97164517,32.0995756 L9.97164517,35.0067713 L11.8597491,38.1384658 L7.09599221,41.3384092 C6.9680026,64.7463467 6.9680026,75.9561127 7.09599221,74.9677073 C9.46772553,72.2114705 11.8622298,76.7629911 13.7338553,72.4580134 C14.1870995,74.7750699 14.255848,76.9557321 13.9401009,79 L22.3058048,79 L25.1959009,63.9602193 L26.9937059,79 L52.5383254,79 L54.9041254,71.152112 L58.1592265,79 L65.1072578,79 L64.7394177,73.7707927 L60.6044062,70.7316841 C63.7999135,69.3520079 65.9317781,68.6400963 67,68.5959492 C67,66.1944189 67,59.6624359 67,49 L64.4775354,46.529213 L64.4775354,40.7065328 L67,39.7521087 L67,19 L7.09599221,19 Z" id="Path-2" stroke="#000000" stroke-width="2" stroke-linejoin="round"></path>
                <path d="M7.6153794,0 C13.2522611,0 15.135434,4.15085946 15.0907248,9.66690654 C15.0460156,15.1829536 13.1901103,19 7.6153794,19 C12.9739627,19 64.3978616,19 67.4454388,19 C69.4771569,19 70.9469894,18.4568385 71.8549364,17.3705155 L67.1760247,12.2329796 C70.9448538,12.8699956 73.3210801,13.2924672 74.3047039,13.5003942 C74.7942457,12.2806794 75,11.0309101 75,9.81065436 C75,3.89969774 72.0532737,0.422136654 66.5796901,0.395251767 C66.4280476,0.382658299 13.8476225,2.25568262e-16 7.6153794,1.12784131e-16 C1.38313629,0 0.0793696525,4.94676411 0.00386377288,7.85686301 C-0.0716421067,10.7669619 0.917159771,15.1535316 6.72898062,15.1535316 C9.30851484,15.1535316 10.7392489,12.7260093 10.7440499,10.0126907 C10.7499165,6.69714916 9.63034392,5.43927394 7.44412647,5.46296841 C5.09213171,5.48845959 4.02367226,7.44292632 4.53253116,9.66690654 C6.33298043,9.66690654 8.40348667,9.66690654 10.7440499,9.66690654" id="Path-3" stroke="#000000" stroke-width="2" stroke-linecap="round" stroke-linejoin="round"></path>
                <path d="M7.4375,15 L13.5625,15" id="Line" stroke="#000000" stroke-width="2" stroke-linecap="square"></path>
                <path d="M8,6 L14,6" id="Line" stroke="#000000" stroke-width="2" stroke-linecap="square"></path>
                <path d="M70,16 C71.1024064,15.2497979 71.732754,14.0407421 72,13" id="Path-4" stroke="#000000" stroke-width="2"></path>
            </g>
        </g>
    </g>
</svg>